<svg width="95" height="93" viewBox="0 0 95 93" fill="none" xmlns="http://www.w3.org/2000/svg">
<g clip-path="url(#clip0_22_2234)">
<path d="M88.2144 36.6843L69.6245 65.5988L88.2144 54.1431V36.6843Z" fill="white"/>
<path opacity="0.3" d="M6.64087 86.4937H35.7157L52.83 75.9471L6.64087 86.4937Z" fill="white"/>
<path opacity="0.6" d="M66.8715 68.2935L57.6412 73.9803L64.1736 72.49L66.8715 68.2935Z" fill="white"/>
<path opacity="0.8" d="M65.3693 72.2156L88.2144 66.9995V55.1417L68.5602 67.2529L65.3693 72.2156Z" fill="white"/>
<path opacity="0.6" d="M55.4042 75.3602L37.3359 86.4937H55.17L63.5187 73.5059L55.4042 75.3602Z" fill="white"/>
<path opacity="0.8" d="M56.1904 86.4937H88.2144V67.8685L64.7143 73.2333L56.1904 86.4937Z" fill="white"/>
<path d="M20.5624 5.71167L18.6013 13.7788L16.5584 5.71167H13.4188L11.3436 13.6759L9.45298 5.71167H5.98022L9.6091 19.1283H12.9676L14.9629 11.1527L16.9906 19.1283H20.2939L23.978 5.71167H20.5624Z" fill="white"/>
<path d="M26.2741 12.1017C26.4312 11.9161 26.6259 11.766 26.8453 11.6615C27.1328 11.5324 27.4462 11.4711 27.7611 11.4823C28.3151 11.4823 28.7264 11.6233 28.9834 11.8997C29.2351 12.1948 29.4115 12.5466 29.4975 12.925H25.9048C25.9238 12.8411 25.9447 12.7516 25.9733 12.6582C26.0362 12.4548 26.1384 12.2657 26.2741 12.1017ZM31.6584 10.8172C31.2414 10.2622 30.701 9.81195 30.0801 9.50221C29.3812 9.16315 28.6118 8.99527 27.8353 9.01242C27.1174 9.0033 26.4051 9.13943 25.741 9.41264C25.1309 9.66653 24.5775 10.0397 24.1132 10.5104C23.6529 10.9828 23.294 11.5444 23.0584 12.1608C22.8104 12.8137 22.6858 13.5071 22.6909 14.2057C22.6834 14.9141 22.8047 15.618 23.0489 16.283C23.2754 16.8949 23.6247 17.454 24.0751 17.9257C24.5337 18.3953 25.0893 18.7589 25.7029 18.9911C26.3833 19.2462 27.1051 19.3723 27.8315 19.3627C28.8552 19.3915 29.8659 19.127 30.7445 18.6004C31.5556 18.0858 32.1649 17.232 32.5514 16.0581L32.6675 15.7036H29.7811L29.724 15.8942C29.6089 16.1829 29.3995 16.424 29.13 16.5784C28.7722 16.8118 28.3517 16.9302 27.9248 16.9176C27.2661 16.9176 26.7596 16.7537 26.4226 16.4335C26.1275 16.1553 25.9467 15.7055 25.8838 15.0995H32.7151L32.7322 14.846C32.7862 14.1207 32.7219 13.3914 32.5418 12.6868C32.3717 12.012 32.0717 11.3769 31.6584 10.8172Z" fill="white"/>
<path d="M36.7876 5.71167H33.6176V19.1283H36.7876V5.71167Z" fill="white"/>
<path d="M41.3551 5.71167H38.1851V19.1283H41.3551V5.71167Z" fill="white"/>
<path d="M45.7969 12.1017C45.9545 11.9166 46.1491 11.7666 46.3681 11.6615C46.655 11.5323 46.9677 11.471 47.282 11.4823C47.836 11.4823 48.2473 11.6233 48.5043 11.8997C48.7567 12.1943 48.9332 12.5463 49.0184 12.925H45.4295C45.4466 12.8411 45.4695 12.7516 45.4961 12.6582C45.5591 12.4548 45.6613 12.2657 45.7969 12.1017ZM51.1812 10.8172C50.7642 10.2622 50.2239 9.81195 49.6029 9.50221C48.904 9.16315 48.1346 8.99527 47.3582 9.01242C46.6403 9.0033 45.9279 9.13943 45.2638 9.41264C44.6537 9.66653 44.1003 10.0397 43.636 10.5104C43.1769 10.9834 42.8187 11.5449 42.5831 12.1608C42.3334 12.8133 42.2081 13.5069 42.2138 14.2057C42.2072 14.914 42.3284 15.6178 42.5717 16.283C42.7982 16.8949 43.1475 17.454 43.5979 17.9257C44.0566 18.3953 44.6121 18.7589 45.2258 18.9911C45.9061 19.2459 46.6279 19.372 47.3543 19.3627C48.3781 19.3915 49.3887 19.127 50.2674 18.6004C51.0803 18.0877 51.6877 17.232 52.0742 16.0581L52.1922 15.7036H49.3116L49.2526 15.8942C49.1368 16.1794 48.9281 16.4171 48.6604 16.5688C48.303 16.8029 47.8822 16.9214 47.4553 16.9081C46.7965 16.9081 46.292 16.7442 45.9531 16.424C45.6599 16.1458 45.479 15.696 45.4143 15.0899H52.2455L52.2627 14.8365C52.3166 14.1112 52.2523 13.3819 52.0723 12.6772C51.8995 12.0049 51.5968 11.373 51.1812 10.8172Z" fill="white"/>
<path d="M60.1392 14.2228C60.139 14.5742 60.1039 14.9247 60.0345 15.2691C59.9768 15.5727 59.8618 15.8625 59.6956 16.1229C59.5399 16.3585 59.3312 16.5543 59.0863 16.6946C58.7962 16.837 58.4774 16.911 58.1544 16.911C57.8313 16.911 57.5125 16.837 57.2224 16.6946C56.9744 16.5557 56.763 16.3597 56.6055 16.1229C56.4386 15.8605 56.3205 15.5699 56.2571 15.2653C56.1824 14.9229 56.1447 14.5734 56.1448 14.2228C56.1436 13.8657 56.1787 13.5094 56.2495 13.1594C56.308 12.8522 56.4236 12.5587 56.5903 12.2942C56.7458 12.0534 56.9542 11.8513 57.1995 11.7034C57.4851 11.5473 57.8073 11.471 58.1325 11.4823C58.4514 11.4722 58.7672 11.5485 59.0464 11.7034C59.2959 11.854 59.5082 12.0592 59.667 12.3037C59.8383 12.5721 59.9602 12.869 60.0269 13.1804C60.1014 13.5229 60.1391 13.8723 60.1392 14.2228ZM62.2011 10.6324C61.8139 10.1404 61.324 9.73906 60.7656 9.4565C60.1231 9.14724 59.4164 8.99505 58.7036 9.01245C58.1037 9.00659 57.5098 9.13213 56.9635 9.38027C56.6448 9.5291 56.3547 9.73296 56.1067 9.98249V9.26401H53.0604V22.391H56.2305V18.3984C56.4857 18.6382 56.7775 18.8357 57.0948 18.9835C57.6426 19.239 58.2403 19.3692 58.8445 19.3646C59.5227 19.379 60.1946 19.2327 60.8056 18.9377C61.3503 18.664 61.828 18.2736 62.205 17.7943C62.5814 17.3112 62.8625 16.7608 63.0332 16.1725C63.214 15.5626 63.305 14.9295 63.3035 14.2934C63.305 13.626 63.2146 12.9617 63.0351 12.319C62.8691 11.7079 62.5859 11.135 62.2011 10.6324Z" fill="white"/>
<path d="M67.3798 5.71167H64.2098V19.1283H67.3798V5.71167Z" fill="white"/>
<path d="M74.6337 14.7603V15.2443C74.6306 15.4267 74.6159 15.6088 74.59 15.7894C74.5608 16.0059 74.4876 16.2141 74.3748 16.4011C74.2452 16.6126 74.0627 16.7867 73.8455 16.9062C73.5193 17.0685 73.1562 17.1421 72.7926 17.1196C72.6062 17.1197 72.4202 17.1031 72.2367 17.0701C72.0881 17.0461 71.9454 16.9944 71.8159 16.9176C71.7091 16.8522 71.6217 16.7594 71.5627 16.6489C71.4942 16.5099 71.4615 16.3559 71.4675 16.201C71.4598 16.0397 71.4932 15.879 71.5646 15.7341C71.6277 15.6164 71.717 15.5147 71.8255 15.4368C71.953 15.3475 72.0936 15.2787 72.2424 15.2329C72.4208 15.1759 72.6027 15.1307 72.7869 15.0976C72.9773 15.0633 73.1925 15.0328 73.3962 15.0099C73.5999 14.987 73.817 14.9546 74.015 14.9165C74.2083 14.8805 74.399 14.8321 74.5861 14.7717L74.6356 14.7545M77.8723 17.9524C77.8234 17.563 77.7992 17.1709 77.8 16.7785V11.934C77.8238 11.391 77.6686 10.8553 77.3583 10.4094C77.0711 10.0282 76.6944 9.7238 76.2616 9.52319C75.8102 9.31348 75.3292 9.17464 74.8356 9.11154C73.7987 8.95862 72.7437 8.97794 71.7131 9.16871C71.1884 9.26687 70.6834 9.45103 70.2186 9.71376C69.771 9.97046 69.3875 10.3256 69.0971 10.7524C68.7833 11.24 68.6082 11.804 68.5907 12.3838L68.5717 12.6715H71.7341L71.7569 12.4257C71.7988 12.0026 71.9359 11.7034 72.1644 11.5357C72.4768 11.3371 72.844 11.2424 73.2134 11.2651C73.4179 11.2638 73.6222 11.2778 73.8246 11.307C73.9771 11.3274 74.1244 11.3765 74.2587 11.4518C74.3716 11.5186 74.4644 11.6147 74.5271 11.7301C74.6059 11.8977 74.6413 12.0826 74.6299 12.2675C74.6418 12.3375 74.6355 12.4093 74.6115 12.4761C74.5875 12.5429 74.5466 12.6023 74.4929 12.6487C74.3168 12.7777 74.1147 12.8668 73.9007 12.9097C73.5806 12.9853 73.2555 13.0375 72.9278 13.066C72.547 13.1022 72.1491 13.1518 71.7512 13.2128C71.3478 13.2743 70.948 13.3577 70.5536 13.4624C70.1554 13.5631 69.7774 13.7313 69.436 13.9598C69.0941 14.1961 68.8123 14.5094 68.6135 14.8746C68.3869 15.3187 68.2768 15.8132 68.2937 16.3116C68.2831 16.7788 68.3775 17.2425 68.5698 17.6685C68.7436 18.0458 69.0047 18.3763 69.3313 18.6328C69.6678 18.8898 70.0514 19.0782 70.4603 19.1874C70.8993 19.3045 71.3521 19.3622 71.8064 19.3589C72.4196 19.3587 73.0295 19.2694 73.6171 19.094C74.0475 18.9672 74.4514 18.7631 74.8089 18.4918C74.8408 18.6435 74.8821 18.7931 74.9326 18.9396L74.9955 19.1302H78.3464L78.0817 18.7147C77.9596 18.48 77.8876 18.2223 77.8704 17.9581L77.8723 17.9524Z" fill="white"/>
<path d="M88.4162 11.488C88.3178 11.0111 88.1149 10.562 87.8222 10.173C87.5132 9.78951 87.1096 9.49327 86.6513 9.31352C86.066 9.09548 85.444 8.99322 84.8197 9.01241C84.2179 9.01528 83.6239 9.14993 83.0795 9.40691C82.7222 9.57413 82.3993 9.80684 82.1276 10.093V9.26397H79.0813V19.1283H82.2513V13.9712C82.2513 13.0851 82.3941 12.4466 82.674 12.0883C82.9539 11.73 83.3746 11.5738 84.0067 11.5738C84.536 11.5738 84.8864 11.7186 85.0806 12.0159C85.2957 12.3475 85.4042 12.8792 85.4042 13.592V19.1283H88.5743V13.1232C88.5795 12.5741 88.5265 12.0259 88.4162 11.488Z" fill="white"/>
<path d="M95.0057 -0.00183105H0V93.0001H95.0057V-0.00183105ZM91.5444 3.38664V89.6116H3.46133V3.38855L91.5444 3.38664Z" fill="white"/>
</g>
<defs>
<clipPath id="clip0_22_2234">
<rect width="95" height="93" fill="white"/>
</clipPath>
</defs>
</svg>
