<svg width="22" height="24" viewBox="0 0 22 24" fill="none" xmlns="http://www.w3.org/2000/svg">
<path d="M21.7809 7.1998C21.7809 7.1998 21.566 5.54512 20.9043 4.81855C20.0664 3.8623 19.1297 3.85762 18.7 3.80137C15.6234 3.55762 11.0043 3.55762 11.0043 3.55762H10.9957C10.9957 3.55762 6.37656 3.55762 3.3 3.80137C2.87031 3.85762 1.93359 3.8623 1.0957 4.81855C0.433984 5.54512 0.223438 7.1998 0.223438 7.1998C0.223438 7.1998 0 9.14512 0 11.0857V12.9045C0 14.8451 0.219141 16.7904 0.219141 16.7904C0.219141 16.7904 0.433984 18.4451 1.09141 19.1717C1.9293 20.1279 3.0293 20.0951 3.51914 20.1982C5.28086 20.3811 11 20.4373 11 20.4373C11 20.4373 15.6234 20.4279 18.7 20.1889C19.1297 20.1326 20.0664 20.1279 20.9043 19.1717C21.566 18.4451 21.7809 16.7904 21.7809 16.7904C21.7809 16.7904 22 14.8498 22 12.9045V11.0857C22 9.14512 21.7809 7.1998 21.7809 7.1998ZM8.72695 15.1123V8.36699L14.6695 11.7514L8.72695 15.1123Z" fill="black"/>
</svg>
