<svg width="21" height="22" viewBox="0 0 21 22" fill="none" xmlns="http://www.w3.org/2000/svg">
<g clip-path="url(#clip0_5_167)">
<path d="M21 11C21 4.92486 16.299 0 10.5 0C4.70101 0 0 4.92486 0 11C0 16.4903 3.83968 21.0412 8.85938 21.8664V14.1797H6.19336V11H8.85938V8.57656C8.85938 5.81969 10.427 4.29688 12.8254 4.29688C13.9738 4.29688 15.1758 4.51172 15.1758 4.51172V7.21875H13.8518C12.5475 7.21875 12.1406 8.06674 12.1406 8.9375V11H15.0527L14.5872 14.1797H12.1406V21.8664C17.1603 21.0412 21 16.4903 21 11Z" fill="black"/>
</g>
<defs>
<clipPath id="clip0_5_167">
<rect width="21" height="22" fill="white"/>
</clipPath>
</defs>
</svg>
