<svg width="23" height="22" viewBox="0 0 23 22" fill="none" xmlns="http://www.w3.org/2000/svg">
<g clip-path="url(#clip0_5_169)">
<path d="M11.5 1.98086C14.5727 1.98086 14.9365 1.99375 16.1449 2.04531C17.268 2.09258 17.8744 2.27305 18.2787 2.42344C18.8133 2.62109 19.1996 2.86172 19.5994 3.24414C20.0037 3.63086 20.2508 3.99609 20.4574 4.50742C20.6146 4.89414 20.8033 5.47852 20.8527 6.54844C20.9066 7.70859 20.9201 8.05664 20.9201 10.9914C20.9201 13.9305 20.9066 14.2785 20.8527 15.4344C20.8033 16.5086 20.6146 17.0887 20.4574 17.4754C20.2508 17.9867 19.9992 18.3563 19.5994 18.7387C19.1951 19.1254 18.8133 19.3617 18.2787 19.5594C17.8744 19.7098 17.2635 19.8902 16.1449 19.9375C14.932 19.9891 14.5682 20.002 11.5 20.002C8.42734 20.002 8.06348 19.9891 6.85508 19.9375C5.73203 19.8902 5.12559 19.7098 4.72129 19.5594C4.18672 19.3617 3.80039 19.1211 3.40059 18.7387C2.99629 18.352 2.74922 17.9867 2.54258 17.4754C2.38535 17.0887 2.19668 16.5043 2.14727 15.4344C2.09336 14.2742 2.07988 13.9262 2.07988 10.9914C2.07988 8.05234 2.09336 7.7043 2.14727 6.54844C2.19668 5.47422 2.38535 4.89414 2.54258 4.50742C2.74922 3.99609 3.00078 3.62656 3.40059 3.24414C3.80488 2.85742 4.18672 2.62109 4.72129 2.42344C5.12559 2.27305 5.73652 2.09258 6.85508 2.04531C8.06348 1.99375 8.42734 1.98086 11.5 1.98086ZM11.5 0C8.37793 0 7.98711 0.0128906 6.76074 0.0644531C5.53887 0.116016 4.69883 0.305078 3.97109 0.575781C3.21191 0.859375 2.56953 1.2332 1.93164 1.84766C1.28926 2.45781 0.898438 3.07227 0.601953 3.79414C0.318945 4.49453 0.121289 5.29375 0.0673828 6.4625C0.0134766 7.63984 0 8.01367 0 11C0 13.9863 0.0134766 14.3602 0.0673828 15.5332C0.121289 16.702 0.318945 17.5055 0.601953 18.2016C0.898438 18.9277 1.28926 19.5422 1.93164 20.1523C2.56953 20.7625 3.21191 21.1406 3.9666 21.4199C4.69883 21.6906 5.53438 21.8797 6.75625 21.9312C7.98262 21.9828 8.37344 21.9957 11.4955 21.9957C14.6176 21.9957 15.0084 21.9828 16.2348 21.9312C17.4566 21.8797 18.2967 21.6906 19.0244 21.4199C19.7791 21.1406 20.4215 20.7625 21.0594 20.1523C21.6973 19.5422 22.0926 18.9277 22.3846 18.2059C22.6676 17.5055 22.8652 16.7063 22.9191 15.5375C22.973 14.3645 22.9865 13.9906 22.9865 11.0043C22.9865 8.01797 22.973 7.64414 22.9191 6.47109C22.8652 5.30234 22.6676 4.49883 22.3846 3.80273C22.1016 3.07227 21.7107 2.45781 21.0684 1.84766C20.4305 1.2375 19.7881 0.859375 19.0334 0.580078C18.3012 0.309375 17.4656 0.120313 16.2437 0.06875C15.0129 0.0128906 14.6221 0 11.5 0Z" fill="black"/>
<path d="M11.5 5.34961C8.23867 5.34961 5.59277 7.88047 5.59277 11C5.59277 14.1195 8.23867 16.6504 11.5 16.6504C14.7613 16.6504 17.4072 14.1195 17.4072 11C17.4072 7.88047 14.7613 5.34961 11.5 5.34961ZM11.5 14.6652C9.38418 14.6652 7.66816 13.0238 7.66816 11C7.66816 8.97617 9.38418 7.33477 11.5 7.33477C13.6158 7.33477 15.3318 8.97617 15.3318 11C15.3318 13.0238 13.6158 14.6652 11.5 14.6652Z" fill="black"/>
<path d="M19.0199 5.12627C19.0199 5.85674 18.4 6.44541 17.6408 6.44541C16.8771 6.44541 16.2617 5.85244 16.2617 5.12627C16.2617 4.3958 16.8816 3.80713 17.6408 3.80713C18.4 3.80713 19.0199 4.4001 19.0199 5.12627Z" fill="black"/>
</g>
<defs>
<clipPath id="clip0_5_169">
<rect width="23" height="22" fill="white"/>
</clipPath>
</defs>
</svg>
