<svg width="21" height="22" viewBox="0 0 21 22" fill="none" xmlns="http://www.w3.org/2000/svg">
<g clip-path="url(#clip0_5_173)">
<path d="M19.4455 0H1.55039C0.693164 0 0 0.708984 0 1.58555V20.4102C0 21.2867 0.693164 22 1.55039 22H19.4455C20.3027 22 21 21.2867 21 20.4145V1.58555C21 0.708984 20.3027 0 19.4455 0ZM6.23027 18.7473H3.11309V8.2457H6.23027V18.7473ZM4.67168 6.81484C3.6709 6.81484 2.86289 5.96836 2.86289 4.92422C2.86289 3.88008 3.6709 3.03359 4.67168 3.03359C5.66836 3.03359 6.47637 3.88008 6.47637 4.92422C6.47637 5.96406 5.66836 6.81484 4.67168 6.81484ZM17.8951 18.7473H14.782V13.6426C14.782 12.4266 14.7615 10.8582 13.1619 10.8582C11.5418 10.8582 11.2957 12.1859 11.2957 13.5566V18.7473H8.18672V8.2457H11.1727V9.68086H11.2137C11.6279 8.85586 12.6451 7.98359 14.1586 7.98359C17.3127 7.98359 17.8951 10.1578 17.8951 12.9852V18.7473Z" fill="black"/>
</g>
<defs>
<clipPath id="clip0_5_173">
<rect width="21" height="22" fill="white"/>
</clipPath>
</defs>
</svg>
